<mxfile host="app.diagrams.net" modified="2023-06-08T17:20:04.760Z" agent="Mozilla/5.0 (Macintosh; Intel Mac OS X 10_15_7) AppleWebKit/537.36 (KHTML, like Gecko) Chrome/114.0.0.0 Safari/537.36" etag="59tcvInFEg6cFvLrzJc-" version="21.3.7" type="github">
  <diagram name="Page-1" id="m_YLYHsO3QayRjd9BOhN">
    <mxGraphModel dx="1841" dy="-65" grid="1" gridSize="10" guides="1" tooltips="1" connect="1" arrows="1" fold="1" page="1" pageScale="1" pageWidth="850" pageHeight="1100" math="0" shadow="0">
      <root>
        <mxCell id="0" />
        <mxCell id="1" parent="0" />
        <mxCell id="YJN8-YzmAyQ4nidcpB6E-1" value="NODE" style="rounded=0;whiteSpace=wrap;html=1;" vertex="1" parent="1">
          <mxGeometry x="360" y="1160" width="120" height="40" as="geometry" />
        </mxCell>
        <mxCell id="YJN8-YzmAyQ4nidcpB6E-2" value="NODE" style="rounded=0;whiteSpace=wrap;html=1;" vertex="1" parent="1">
          <mxGeometry x="520" y="1160" width="120" height="40" as="geometry" />
        </mxCell>
        <mxCell id="YJN8-YzmAyQ4nidcpB6E-3" value="NODE" style="rounded=0;whiteSpace=wrap;html=1;" vertex="1" parent="1">
          <mxGeometry x="680" y="1160" width="120" height="40" as="geometry" />
        </mxCell>
        <mxCell id="YJN8-YzmAyQ4nidcpB6E-4" value="NODE" style="rounded=0;whiteSpace=wrap;html=1;" vertex="1" parent="1">
          <mxGeometry x="840" y="1160" width="120" height="40" as="geometry" />
        </mxCell>
        <mxCell id="YJN8-YzmAyQ4nidcpB6E-5" value="NODE" style="rounded=0;whiteSpace=wrap;html=1;" vertex="1" parent="1">
          <mxGeometry x="1000" y="1160" width="120" height="40" as="geometry" />
        </mxCell>
        <mxCell id="YJN8-YzmAyQ4nidcpB6E-6" value="L1 SWITCH0" style="rounded=0;whiteSpace=wrap;html=1;" vertex="1" parent="1">
          <mxGeometry x="340" y="1360" width="320" height="40" as="geometry" />
        </mxCell>
        <mxCell id="YJN8-YzmAyQ4nidcpB6E-7" value="L1 SWITCH1" style="rounded=0;whiteSpace=wrap;html=1;" vertex="1" parent="1">
          <mxGeometry x="1140" y="1360" width="320" height="40" as="geometry" />
        </mxCell>
        <mxCell id="YJN8-YzmAyQ4nidcpB6E-8" value="" style="endArrow=classic;startArrow=classic;html=1;rounded=0;entryX=0.308;entryY=1.025;entryDx=0;entryDy=0;entryPerimeter=0;exitX=0.5;exitY=0;exitDx=0;exitDy=0;fillColor=#dae8fc;strokeColor=#6c8ebf;strokeWidth=3;" edge="1" parent="1" source="YJN8-YzmAyQ4nidcpB6E-6" target="YJN8-YzmAyQ4nidcpB6E-1">
          <mxGeometry width="50" height="50" relative="1" as="geometry">
            <mxPoint x="720" y="1690" as="sourcePoint" />
            <mxPoint x="770" y="1640" as="targetPoint" />
          </mxGeometry>
        </mxCell>
        <mxCell id="YJN8-YzmAyQ4nidcpB6E-9" value="" style="endArrow=classic;startArrow=classic;html=1;rounded=0;entryX=0.25;entryY=1;entryDx=0;entryDy=0;exitX=0.5;exitY=0;exitDx=0;exitDy=0;fillColor=#dae8fc;strokeColor=#6c8ebf;strokeWidth=3;" edge="1" parent="1" source="YJN8-YzmAyQ4nidcpB6E-7" target="YJN8-YzmAyQ4nidcpB6E-29">
          <mxGeometry width="50" height="50" relative="1" as="geometry">
            <mxPoint x="470" y="1290" as="sourcePoint" />
            <mxPoint x="407" y="1211" as="targetPoint" />
          </mxGeometry>
        </mxCell>
        <mxCell id="YJN8-YzmAyQ4nidcpB6E-10" value="" style="endArrow=classic;startArrow=classic;html=1;rounded=0;entryX=0.25;entryY=1;entryDx=0;entryDy=0;exitX=0.5;exitY=0;exitDx=0;exitDy=0;fillColor=#dae8fc;strokeColor=#6c8ebf;strokeWidth=3;" edge="1" parent="1" source="YJN8-YzmAyQ4nidcpB6E-6" target="YJN8-YzmAyQ4nidcpB6E-2">
          <mxGeometry width="50" height="50" relative="1" as="geometry">
            <mxPoint x="839" y="1289" as="sourcePoint" />
            <mxPoint x="460" y="1210" as="targetPoint" />
          </mxGeometry>
        </mxCell>
        <mxCell id="YJN8-YzmAyQ4nidcpB6E-11" value="" style="endArrow=classic;startArrow=classic;html=1;rounded=0;entryX=0.25;entryY=1;entryDx=0;entryDy=0;exitX=0.5;exitY=0;exitDx=0;exitDy=0;fillColor=#dae8fc;strokeColor=#6c8ebf;strokeWidth=3;" edge="1" parent="1" source="YJN8-YzmAyQ4nidcpB6E-7" target="YJN8-YzmAyQ4nidcpB6E-28">
          <mxGeometry width="50" height="50" relative="1" as="geometry">
            <mxPoint x="839" y="1289" as="sourcePoint" />
            <mxPoint x="460" y="1210" as="targetPoint" />
          </mxGeometry>
        </mxCell>
        <mxCell id="YJN8-YzmAyQ4nidcpB6E-12" value="" style="endArrow=classic;startArrow=classic;html=1;rounded=0;entryX=0.25;entryY=1;entryDx=0;entryDy=0;exitX=0.5;exitY=0;exitDx=0;exitDy=0;fillColor=#dae8fc;strokeColor=#6c8ebf;strokeWidth=3;" edge="1" parent="1" source="YJN8-YzmAyQ4nidcpB6E-6" target="YJN8-YzmAyQ4nidcpB6E-3">
          <mxGeometry width="50" height="50" relative="1" as="geometry">
            <mxPoint x="870" y="1290" as="sourcePoint" />
            <mxPoint x="460" y="1210" as="targetPoint" />
          </mxGeometry>
        </mxCell>
        <mxCell id="YJN8-YzmAyQ4nidcpB6E-13" value="" style="endArrow=classic;startArrow=classic;html=1;rounded=0;entryX=0.25;entryY=1;entryDx=0;entryDy=0;exitX=0.5;exitY=0;exitDx=0;exitDy=0;fillColor=#dae8fc;strokeColor=#6c8ebf;strokeWidth=3;" edge="1" parent="1" source="YJN8-YzmAyQ4nidcpB6E-7" target="YJN8-YzmAyQ4nidcpB6E-27">
          <mxGeometry width="50" height="50" relative="1" as="geometry">
            <mxPoint x="870" y="1290" as="sourcePoint" />
            <mxPoint x="460" y="1210" as="targetPoint" />
          </mxGeometry>
        </mxCell>
        <mxCell id="YJN8-YzmAyQ4nidcpB6E-14" value="" style="endArrow=classic;startArrow=classic;html=1;rounded=0;entryX=0.25;entryY=1;entryDx=0;entryDy=0;exitX=0.5;exitY=0;exitDx=0;exitDy=0;fillColor=#dae8fc;strokeColor=#6c8ebf;strokeWidth=3;" edge="1" parent="1" source="YJN8-YzmAyQ4nidcpB6E-6" target="YJN8-YzmAyQ4nidcpB6E-4">
          <mxGeometry width="50" height="50" relative="1" as="geometry">
            <mxPoint x="870" y="1290" as="sourcePoint" />
            <mxPoint x="620" y="1210" as="targetPoint" />
          </mxGeometry>
        </mxCell>
        <mxCell id="YJN8-YzmAyQ4nidcpB6E-15" value="" style="endArrow=classic;startArrow=classic;html=1;rounded=0;entryX=0.25;entryY=1;entryDx=0;entryDy=0;fillColor=#dae8fc;strokeColor=#6c8ebf;strokeWidth=3;exitX=0.5;exitY=0;exitDx=0;exitDy=0;" edge="1" parent="1" source="YJN8-YzmAyQ4nidcpB6E-6" target="YJN8-YzmAyQ4nidcpB6E-5">
          <mxGeometry width="50" height="50" relative="1" as="geometry">
            <mxPoint x="620" y="1280" as="sourcePoint" />
            <mxPoint x="880" y="1210" as="targetPoint" />
          </mxGeometry>
        </mxCell>
        <mxCell id="YJN8-YzmAyQ4nidcpB6E-16" value="" style="endArrow=classic;startArrow=classic;html=1;rounded=0;entryX=0.75;entryY=1;entryDx=0;entryDy=0;exitX=0.5;exitY=0;exitDx=0;exitDy=0;fillColor=#dae8fc;strokeColor=#6c8ebf;strokeWidth=3;" edge="1" parent="1" source="YJN8-YzmAyQ4nidcpB6E-7" target="YJN8-YzmAyQ4nidcpB6E-4">
          <mxGeometry width="50" height="50" relative="1" as="geometry">
            <mxPoint x="950" y="1290" as="sourcePoint" />
            <mxPoint x="780" y="1210" as="targetPoint" />
          </mxGeometry>
        </mxCell>
        <mxCell id="YJN8-YzmAyQ4nidcpB6E-17" value="" style="endArrow=classic;startArrow=classic;html=1;rounded=0;entryX=0.75;entryY=1;entryDx=0;entryDy=0;exitX=0.5;exitY=0;exitDx=0;exitDy=0;fillColor=#dae8fc;strokeColor=#6c8ebf;strokeWidth=3;" edge="1" parent="1" source="YJN8-YzmAyQ4nidcpB6E-7" target="YJN8-YzmAyQ4nidcpB6E-5">
          <mxGeometry width="50" height="50" relative="1" as="geometry">
            <mxPoint x="1030" y="1290" as="sourcePoint" />
            <mxPoint x="940" y="1210" as="targetPoint" />
          </mxGeometry>
        </mxCell>
        <mxCell id="YJN8-YzmAyQ4nidcpB6E-18" value="NODE" style="rounded=0;whiteSpace=wrap;html=1;" vertex="1" parent="1">
          <mxGeometry x="1160" y="1160" width="120" height="40" as="geometry" />
        </mxCell>
        <mxCell id="YJN8-YzmAyQ4nidcpB6E-19" value="NODE" style="rounded=0;whiteSpace=wrap;html=1;" vertex="1" parent="1">
          <mxGeometry x="200" y="1160" width="120" height="40" as="geometry" />
        </mxCell>
        <mxCell id="YJN8-YzmAyQ4nidcpB6E-20" value="" style="endArrow=classic;startArrow=classic;html=1;rounded=0;entryX=0.25;entryY=1;entryDx=0;entryDy=0;exitX=0.5;exitY=0;exitDx=0;exitDy=0;fillColor=#dae8fc;strokeColor=#6c8ebf;strokeWidth=3;" edge="1" parent="1" source="YJN8-YzmAyQ4nidcpB6E-6" target="YJN8-YzmAyQ4nidcpB6E-19">
          <mxGeometry width="50" height="50" relative="1" as="geometry">
            <mxPoint x="550" y="1370" as="sourcePoint" />
            <mxPoint x="407" y="1211" as="targetPoint" />
          </mxGeometry>
        </mxCell>
        <mxCell id="YJN8-YzmAyQ4nidcpB6E-21" value="" style="endArrow=classic;startArrow=classic;html=1;rounded=0;entryX=0.25;entryY=1;entryDx=0;entryDy=0;exitX=0.5;exitY=0;exitDx=0;exitDy=0;fillColor=#dae8fc;strokeColor=#6c8ebf;strokeWidth=3;" edge="1" parent="1" source="YJN8-YzmAyQ4nidcpB6E-7" target="YJN8-YzmAyQ4nidcpB6E-30">
          <mxGeometry width="50" height="50" relative="1" as="geometry">
            <mxPoint x="550" y="1370" as="sourcePoint" />
            <mxPoint x="407" y="1211" as="targetPoint" />
          </mxGeometry>
        </mxCell>
        <mxCell id="YJN8-YzmAyQ4nidcpB6E-22" value="" style="endArrow=classic;startArrow=classic;html=1;rounded=0;entryX=0.25;entryY=1;entryDx=0;entryDy=0;exitX=0.5;exitY=0;exitDx=0;exitDy=0;fillColor=#dae8fc;strokeColor=#6c8ebf;strokeWidth=3;" edge="1" parent="1" source="YJN8-YzmAyQ4nidcpB6E-6" target="YJN8-YzmAyQ4nidcpB6E-18">
          <mxGeometry width="50" height="50" relative="1" as="geometry">
            <mxPoint x="950" y="1370" as="sourcePoint" />
            <mxPoint x="300" y="1210" as="targetPoint" />
          </mxGeometry>
        </mxCell>
        <mxCell id="YJN8-YzmAyQ4nidcpB6E-23" value="" style="endArrow=classic;startArrow=classic;html=1;rounded=0;entryX=0.75;entryY=1;entryDx=0;entryDy=0;exitX=0.5;exitY=0;exitDx=0;exitDy=0;fillColor=#dae8fc;strokeColor=#6c8ebf;strokeWidth=3;" edge="1" parent="1" source="YJN8-YzmAyQ4nidcpB6E-7" target="YJN8-YzmAyQ4nidcpB6E-18">
          <mxGeometry width="50" height="50" relative="1" as="geometry">
            <mxPoint x="550" y="1370" as="sourcePoint" />
            <mxPoint x="1200" y="1210" as="targetPoint" />
          </mxGeometry>
        </mxCell>
        <mxCell id="YJN8-YzmAyQ4nidcpB6E-24" value="NODE" style="rounded=0;whiteSpace=wrap;html=1;" vertex="1" parent="1">
          <mxGeometry x="40" y="1160" width="120" height="40" as="geometry" />
        </mxCell>
        <mxCell id="YJN8-YzmAyQ4nidcpB6E-25" value="" style="endArrow=classic;startArrow=classic;html=1;rounded=0;entryX=0.25;entryY=1;entryDx=0;entryDy=0;fillColor=#dae8fc;strokeColor=#6c8ebf;strokeWidth=3;exitX=0.5;exitY=0;exitDx=0;exitDy=0;" edge="1" parent="1" source="YJN8-YzmAyQ4nidcpB6E-6" target="YJN8-YzmAyQ4nidcpB6E-24">
          <mxGeometry width="50" height="50" relative="1" as="geometry">
            <mxPoint x="540" y="1360" as="sourcePoint" />
            <mxPoint x="240" y="1210" as="targetPoint" />
          </mxGeometry>
        </mxCell>
        <mxCell id="YJN8-YzmAyQ4nidcpB6E-26" value="" style="endArrow=classic;startArrow=classic;html=1;rounded=0;entryX=0.75;entryY=1;entryDx=0;entryDy=0;fillColor=#dae8fc;strokeColor=#6c8ebf;strokeWidth=3;exitX=0.5;exitY=0;exitDx=0;exitDy=0;" edge="1" parent="1" source="YJN8-YzmAyQ4nidcpB6E-7" target="YJN8-YzmAyQ4nidcpB6E-3">
          <mxGeometry width="50" height="50" relative="1" as="geometry">
            <mxPoint x="550" y="1370" as="sourcePoint" />
            <mxPoint x="80" y="1210" as="targetPoint" />
          </mxGeometry>
        </mxCell>
        <mxCell id="YJN8-YzmAyQ4nidcpB6E-27" value="NODE" style="rounded=0;whiteSpace=wrap;html=1;" vertex="1" parent="1">
          <mxGeometry x="1320" y="1160" width="120" height="40" as="geometry" />
        </mxCell>
        <mxCell id="YJN8-YzmAyQ4nidcpB6E-28" value="NODE" style="rounded=0;whiteSpace=wrap;html=1;" vertex="1" parent="1">
          <mxGeometry x="1480" y="1160" width="120" height="40" as="geometry" />
        </mxCell>
        <mxCell id="YJN8-YzmAyQ4nidcpB6E-29" value="NODE" style="rounded=0;whiteSpace=wrap;html=1;" vertex="1" parent="1">
          <mxGeometry x="1640" y="1160" width="120" height="40" as="geometry" />
        </mxCell>
        <mxCell id="YJN8-YzmAyQ4nidcpB6E-30" value="NODE" style="rounded=0;whiteSpace=wrap;html=1;" vertex="1" parent="1">
          <mxGeometry x="1800" y="1160" width="120" height="40" as="geometry" />
        </mxCell>
        <mxCell id="YJN8-YzmAyQ4nidcpB6E-31" value="L1 SWITCH 2" style="rounded=0;whiteSpace=wrap;html=1;" vertex="1" parent="1">
          <mxGeometry x="1780" y="1360" width="320" height="40" as="geometry" />
        </mxCell>
        <mxCell id="YJN8-YzmAyQ4nidcpB6E-32" value="" style="endArrow=classic;startArrow=classic;html=1;rounded=0;entryX=0.75;entryY=1;entryDx=0;entryDy=0;exitX=0.5;exitY=0;exitDx=0;exitDy=0;fillColor=#dae8fc;strokeColor=#6c8ebf;strokeWidth=3;" edge="1" parent="1" source="YJN8-YzmAyQ4nidcpB6E-31" target="YJN8-YzmAyQ4nidcpB6E-27">
          <mxGeometry width="50" height="50" relative="1" as="geometry">
            <mxPoint x="1310" y="1370" as="sourcePoint" />
            <mxPoint x="1360" y="1210" as="targetPoint" />
          </mxGeometry>
        </mxCell>
        <mxCell id="YJN8-YzmAyQ4nidcpB6E-33" value="" style="endArrow=classic;startArrow=classic;html=1;rounded=0;entryX=0.75;entryY=1;entryDx=0;entryDy=0;exitX=0.5;exitY=0;exitDx=0;exitDy=0;fillColor=#dae8fc;strokeColor=#6c8ebf;strokeWidth=3;" edge="1" parent="1" source="YJN8-YzmAyQ4nidcpB6E-31" target="YJN8-YzmAyQ4nidcpB6E-28">
          <mxGeometry width="50" height="50" relative="1" as="geometry">
            <mxPoint x="1870" y="1370" as="sourcePoint" />
            <mxPoint x="1420" y="1210" as="targetPoint" />
          </mxGeometry>
        </mxCell>
        <mxCell id="YJN8-YzmAyQ4nidcpB6E-34" value="" style="endArrow=classic;startArrow=classic;html=1;rounded=0;entryX=0.75;entryY=1;entryDx=0;entryDy=0;exitX=0.5;exitY=0;exitDx=0;exitDy=0;fillColor=#dae8fc;strokeColor=#6c8ebf;strokeWidth=3;" edge="1" parent="1" source="YJN8-YzmAyQ4nidcpB6E-31" target="YJN8-YzmAyQ4nidcpB6E-29">
          <mxGeometry width="50" height="50" relative="1" as="geometry">
            <mxPoint x="1950" y="1370" as="sourcePoint" />
            <mxPoint x="1580" y="1210" as="targetPoint" />
          </mxGeometry>
        </mxCell>
        <mxCell id="YJN8-YzmAyQ4nidcpB6E-35" value="" style="endArrow=classic;startArrow=classic;html=1;rounded=0;entryX=0.75;entryY=1;entryDx=0;entryDy=0;fillColor=#dae8fc;strokeColor=#6c8ebf;strokeWidth=3;exitX=0.5;exitY=0;exitDx=0;exitDy=0;" edge="1" parent="1" source="YJN8-YzmAyQ4nidcpB6E-31" target="YJN8-YzmAyQ4nidcpB6E-30">
          <mxGeometry width="50" height="50" relative="1" as="geometry">
            <mxPoint x="1970" y="1340" as="sourcePoint" />
            <mxPoint x="1740" y="1210" as="targetPoint" />
          </mxGeometry>
        </mxCell>
      </root>
    </mxGraphModel>
  </diagram>
</mxfile>
